<mxfile host="app.diagrams.net" modified="2023-11-15T11:59:02.965Z" agent="Mozilla/5.0 (Windows NT 10.0; Win64; x64) AppleWebKit/537.36 (KHTML, like Gecko) Chrome/119.0.0.0 Safari/537.36 Edg/119.0.0.0" etag="IRZsH4oBsVYrHXJDxGdV" version="22.1.1" type="device">
  <diagram name="Sayfa -1" id="_--A1dbPSw1hcr9DAJ7K">
    <mxGraphModel dx="1242" dy="523" grid="1" gridSize="10" guides="1" tooltips="1" connect="1" arrows="1" fold="1" page="1" pageScale="1" pageWidth="827" pageHeight="1169" math="0" shadow="0">
      <root>
        <mxCell id="0" />
        <mxCell id="1" parent="0" />
        <mxCell id="-YQRRDQbORxi74wDHwvd-1" value="&lt;p style=&quot;margin:0px;margin-top:4px;text-align:center;&quot;&gt;&lt;b&gt;Student&lt;/b&gt;&lt;/p&gt;&lt;hr size=&quot;1&quot;/&gt;&lt;p style=&quot;margin:0 0 0 4px;line-height:1.6;&quot;&gt;+ Student(int, String, String, String, String, byte): &lt;/p&gt;&lt;hr size=&quot;1&quot;/&gt;&lt;p style=&quot;margin:0 0 0 4px;line-height:1.6;&quot;&gt;- gradeLevel: byte&lt;br/&gt;- transcript: Transcript&lt;br/&gt;- courseSectionMap: Map&amp;lt;Course, CourseSection&amp;gt;&lt;br/&gt;- availableCourses: List&amp;lt;Course&amp;gt;&lt;br/&gt;- advisor: Advisor&lt;br/&gt;- draft: List&amp;lt;Course&amp;gt;&lt;br/&gt;- hasRequest: boolean&lt;/p&gt;&lt;hr size=&quot;1&quot;/&gt;&lt;p style=&quot;margin:0 0 0 4px;line-height:1.6;&quot;&gt;+ setPassword(String): void&lt;br/&gt;+ printMenu(String): void&lt;br/&gt;+ getDraft(): List&amp;lt;Course&amp;gt;&lt;br/&gt;+ getTranscript(): Transcript&lt;br/&gt;+ addCourse(): void&lt;br/&gt;+ getAvailableCourses(): List&amp;lt;Course&amp;gt;&lt;br/&gt;+ getDepartmentName(): String&lt;br/&gt;+ setUserName(String): void&lt;br/&gt;+ getGradeLevel(): byte&lt;br/&gt;~ login(String, String): boolean&lt;br/&gt;+ setDraft(List&amp;lt;Course&amp;gt;): void&lt;br/&gt;+ setHasRequest(boolean): void&lt;br/&gt;+ isHasRequest(): boolean&lt;br/&gt;+ showRequestStatus(): void&lt;br/&gt;+ getCourseSectionMap(): Map&amp;lt;Course, CourseSection&amp;gt;&lt;br/&gt;+ dropCourse(): void&lt;br/&gt;+ viewAvailableCourses(): void&lt;br/&gt;+ setTranscript(Transcript): void&lt;br/&gt;+ setAdvisor(Advisor): void&lt;br/&gt;+ sendRequest(): void&lt;br/&gt;+ getAdvisor(): Advisor&lt;/p&gt;" style="verticalAlign=top;align=left;overflow=fill;fontSize=14;fontFamily=Helvetica;html=1;rounded=0;shadow=0;comic=0;labelBackgroundColor=none;strokeWidth=1;" vertex="1" parent="1">
          <mxGeometry x="100" y="30" width="356" height="723" as="geometry" />
        </mxCell>
      </root>
    </mxGraphModel>
  </diagram>
</mxfile>
